<svg xmlns="http://www.w3.org/2000/svg" width="1000" height="240" viewBox="0 0 1000 240" preserveAspectRatio="xMidYMid meet">
  <defs>
    <linearGradient id="grad" x1="0" x2="1" y1="0" y2="1">
      <stop offset="0%" stop-color="#6366f1"/>
      <stop offset="100%" stop-color="#7c3aed"/>
    </linearGradient>
    <style>
      .title { font: 700 46px 'Inter', sans-serif; fill: #fff; }
      .subtitle { font: 400 20px 'Inter', sans-serif; fill: #e0e7ff; }
      .tag { font: 400 15px 'Inter', sans-serif; fill: #fff; }
    </style>
  </defs>

  <!-- Background -->
  <rect width="100%" height="100%" rx="20" fill="url(#grad)"/>

  <!-- Name & Role -->
  <text x="50" y="80" class="title">Rohit Kumar</text>
  <text x="50" y="120" class="subtitle">Full Stack Developer • AI Enthusiast • Backend Engineer</text>

  <!-- Skill Tags -->
  <rect x="50" y="150" width="260" height="36" rx="8" fill="rgba(255,255,255,0.15)"/>
  <text x="65" y="174" class="tag">Java • Python • React • Spring Boot</text>

  <rect x="330" y="150" width="320" height="36" rx="8" fill="rgba(255,255,255,0.15)"/>
  <text x="345" y="174" class="tag">IBM ISL Intern • AI Projects • Hackathon Winner</text>

  <!-- Social Icons -->
  <a href="https://github.com/rohitkumar-160" target="_blank">
    <circle cx="60" cy="210" r="18" fill="#0d1117"/>
    <path fill="#fff" d="M60 200c-5.5 0-10 4.5-10 10 0 4.4 2.9 8.1 6.9 9.4.5.1.7-.2.7-.5v-2c-2.8.6-3.4-1.3-3.4-1.3-.4-1-1-1.3-1-1.3-.8-.6.1-.6.1-.6.9.1 1.3 1 1.3 1 .8 1.3 2.1.9 2.6.7.1-.6.3-1 .6-1.2-2.2-.2-4.5-1.1-4.5-4.9 0-1.1.4-2 1-2.7-.1-.2-.5-1.2.1-2.4 0 0 .8-.3 2.8 1 .8-.2 1.7-.3 2.6-.3s1.8.1 2.6.3c2-1.3 2.8-1 2.8-1 .6 1.2.2 2.2.1 2.4.6.7 1 1.6 1 2.7 0 3.8-2.3 4.6-4.5 4.9.4.3.7.9.7 1.9v2.8c0 .3.2.6.7.5 4-1.3 6.9-5 6.9-9.4 0-5.5-4.5-10-10-10z"/>
  </a>

  <a href="https://www.linkedin.com/in/rohit-kumar-39827b254/" target="_blank">
    <circle cx="110" cy="210" r="18" fill="#0a66c2"/>
    <path fill="#fff" d="M114 217h-3v-4.6c0-1.1 0-2.5-1.5-2.5-1.5 0-1.7 1.2-1.7 2.4v4.7h-3v-9.4h2.9v1.3h.1c.4-.8 1.5-1.7 3-1.7 3.2 0 3.8 2.1 3.8 4.7V217zm-11.6-10.8c-1 0-1.7-.7-1.7-1.6 0-.9.7-1.6 1.7-1.6s1.7.7 1.7 1.6c0 .9-.7 1.6-1.7 1.6zm1.5 10.8h-3v-9.4h3v9.4z"/>
  </a>
</svg>
